<svg id="visual" viewBox="0 0 540 960" width="540" height="960" xmlns="http://www.w3.org/2000/svg" xmlns:xlink="http://www.w3.org/1999/xlink" version="1.1"><rect x="0" y="0" width="540" height="960" fill="#ffffff"></rect><path d="M0 332L30 332L30 366L60 366L60 531L90 531L90 328L120 328L120 628L150 628L150 444L180 444L180 294L210 294L210 359L240 359L240 646L270 646L270 478L300 478L300 460L330 460L330 613L360 613L360 669L390 669L390 494L420 494L420 670L450 670L450 224L480 224L480 254L510 254L510 334L540 334L540 644L540 0L540 0L510 0L510 0L480 0L480 0L450 0L450 0L420 0L420 0L390 0L390 0L360 0L360 0L330 0L330 0L300 0L300 0L270 0L270 0L240 0L240 0L210 0L210 0L180 0L180 0L150 0L150 0L120 0L120 0L90 0L90 0L60 0L60 0L30 0L30 0L0 0Z" fill="#019aff"></path><path d="M0 216L30 216L30 363L60 363L60 80L90 80L90 351L120 351L120 389L150 389L150 36L180 36L180 188L210 188L210 327L240 327L240 3L270 3L270 240L300 240L300 386L330 386L330 154L360 154L360 276L390 276L390 295L420 295L420 344L450 344L450 117L480 117L480 206L510 206L510 8L540 8L540 368L540 0L540 0L510 0L510 0L480 0L480 0L450 0L450 0L420 0L420 0L390 0L390 0L360 0L360 0L330 0L330 0L300 0L300 0L270 0L270 0L240 0L240 0L210 0L210 0L180 0L180 0L150 0L150 0L120 0L120 0L90 0L90 0L60 0L60 0L30 0L30 0L0 0Z" fill="#0099ff"></path></svg>